<svg xmlns="http://www.w3.org/2000/svg" viewBox="0 0 155.95 42.775"><path fill="#008fbe" d="M53.145 31.309h1.958v4.713h4.496v-4.713h1.958v11.283h-1.958v-4.811h-4.496v4.811h-1.958zm10.054 9.242c-.165-.514-.282-1.128-.282-1.958 0-.829.1-1.46.266-1.974.448-1.394 1.676-2.207 3.269-2.207 1.642 0 2.837.846 3.285 2.207.182.564.265 1.112.265 2.406 0 .1-.066.167-.182.167h-4.928a.1.1 0 0 0-.1.098c0 .233.05.433.116.615.266.78.896 1.211 1.792 1.211s1.477-.332 1.875-.763c.084-.083.166-.099.249-.033l.979.863c.083.066.083.149.017.232-.681.797-1.809 1.361-3.285 1.361-1.693-.001-2.887-.83-3.336-2.225m4.829-3.534c-.215-.647-.813-1.028-1.559-1.028-.764 0-1.361.381-1.577 1.028-.066.198-.1.398-.1.68a.1.1 0 0 0 .1.1h3.136c.054 0 .1-.046.1-.1a2.059 2.059 0 0 0-.1-.68m8.064 5.575a.166.166 0 0 1-.166-.166v-.58h-.017c-.382.548-1.128.929-2.257.929-1.46 0-2.687-.763-2.687-2.439 0-1.743 1.227-2.539 3.202-2.539h1.626a.099.099 0 0 0 .099-.1v-.381c0-.913-.432-1.328-1.775-1.328-.896 0-1.444.249-1.825.548-.083.066-.183.05-.233-.033l-.614-1.095c-.049-.083-.033-.166.034-.216.646-.465 1.526-.78 2.837-.78 2.439 0 3.335.83 3.335 2.787v5.393h-1.559zm-.2-2.688v-.614a.099.099 0 0 0-.099-.099h-1.328c-1.195 0-1.725.332-1.725 1.078 0 .664.48.996 1.377.996 1.145 0 1.775-.448 1.775-1.361m5.609 2.788c-1.56 0-2.191-.747-2.191-2.291v-9.093h1.859v8.994c0 .548.215.731.697.731h.365c.091 0 .165.074.165.165v1.494h-.895zm4.429 0c-1.609 0-2.224-.78-2.224-2.34v-4.215a.099.099 0 0 0-.1-.099h-.531a.165.165 0 0 1-.165-.166V34.76c0-.091.074-.166.165-.166h.531a.1.1 0 0 0 .1-.099v-2.356h1.859v2.455h1.326v1.444h-1.326v4.248c0 .564.232.747.746.747h.415c.092 0 .165.074.165.165v1.494h-.961zm7.301-.1v-4.778c0-1.029-.515-1.743-1.51-1.743-.962 0-1.526.714-1.526 1.743v4.778h-1.858V31.309h1.858v4.033h.017c.37-.529 1.133-.983 2.31-.924 1.452.072 2.568 1.322 2.568 2.775v5.4h-1.859z"/><path d="M95.878 41.281c-.067-.066-.1-.166-.033-.248l1.029-1.196c.066-.083.165-.083.232-.016.73.58 1.809 1.195 3.07 1.195 1.344 0 2.124-.681 2.124-1.626 0-.813-.498-1.344-2.058-1.56l-.597-.083c-2.174-.299-3.402-1.344-3.402-3.219 0-2.041 1.494-3.401 3.817-3.401 1.411 0 2.754.447 3.651 1.128.083.066.1.133.033.232l-.797 1.228c-.066.083-.15.099-.233.05-.913-.597-1.759-.879-2.705-.879-1.144 0-1.775.63-1.775 1.51 0 .78.548 1.311 2.074 1.526l.598.083c2.174.299 3.368 1.327 3.368 3.269 0 2.007-1.444 3.501-4.248 3.501-1.66 0-3.269-.664-4.148-1.494m9.623-.713c-.165-.498-.248-1.128-.248-1.975 0-.846.083-1.477.248-1.975.465-1.427 1.693-2.207 3.303-2.207 1.194 0 2.14.481 2.77 1.244.05.066.067.166-.017.233l-1.045.912c-.083.067-.165.05-.233-.033-.398-.448-.813-.698-1.476-.698-.714 0-1.261.349-1.494 1.046-.133.398-.166.863-.166 1.477 0 .93.076 1.554.458 2.048.196.254.498.411.816.449.899.108 1.392-.142 1.862-.672.067-.083.15-.083.233-.017l1.045.913c.083.067.067.15.017.233-.63.747-1.576 1.228-2.77 1.228-1.61.001-2.838-.779-3.303-2.206m7.4-7.483l-.001-1.776h1.859v1.775h-1.858zm0 9.507l-.001-7.998h1.859v7.998h-1.858zm3.468-2.041c-.166-.514-.282-1.128-.282-1.958 0-.829.099-1.46.265-1.974.448-1.394 1.676-2.207 3.269-2.207 1.643 0 2.838.846 3.285 2.207.183.564.266 1.112.266 2.406 0 .1-.066.167-.183.167h-4.928a.1.1 0 0 0-.1.098c0 .233.05.433.116.615.265.78.896 1.211 1.792 1.211s1.477-.332 1.875-.763c.083-.083.166-.099.248-.033l.979.863c.083.066.083.149.017.232-.68.797-1.809 1.361-3.285 1.361-1.692-.001-2.886-.83-3.334-2.225m4.828-3.534c-.216-.647-.813-1.028-1.56-1.028-.763 0-1.361.381-1.576 1.028-.066.198-.1.398-.1.68a.1.1 0 0 0 .1.1h3.136a.1.1 0 0 0 .099-.1 1.985 1.985 0 0 0-.099-.68m8.196 5.575v-4.778c0-1.029-.514-1.743-1.51-1.743-.962 0-1.526.714-1.526 1.743v4.778h-1.859v-7.998h1.693c.092 0 .166.074.166.166v.581h.016c.37-.529 1.133-.983 2.31-.924 1.452.072 2.568 1.322 2.568 2.776v5.399h-1.858zm3.352-2.024c-.166-.498-.249-1.128-.249-1.975 0-.846.083-1.477.249-1.975.465-1.427 1.693-2.207 3.302-2.207 1.195 0 2.14.481 2.771 1.244.05.066.066.166-.017.233l-1.045.912c-.083.067-.165.05-.233-.033-.398-.448-.813-.698-1.476-.698-.714 0-1.261.349-1.494 1.046-.133.398-.166.863-.166 1.477 0 .93.076 1.554.458 2.048.196.254.498.411.816.449.899.108 1.392-.142 1.862-.672.067-.083.15-.083.233-.017l1.045.913c.083.067.067.15.017.233-.63.747-1.576 1.228-2.771 1.228-1.61.001-2.837-.779-3.302-2.206m7.251-.017c-.166-.514-.282-1.128-.282-1.958 0-.829.099-1.46.265-1.974.448-1.394 1.676-2.207 3.269-2.207 1.643 0 2.838.846 3.285 2.207.183.564.266 1.112.266 2.406 0 .1-.066.167-.183.167h-4.928a.1.1 0 0 0-.1.098c0 .233.05.432.117.615.265.78.895 1.211 1.791 1.211.896 0 1.477-.332 1.876-.763.083-.083.166-.099.249-.033l.979.863c.083.066.083.149.016.232-.68.797-1.809 1.361-3.285 1.361-1.693-.001-2.887-.83-3.335-2.225m4.828-3.534c-.215-.647-.813-1.028-1.56-1.028-.763 0-1.361.381-1.576 1.028-.067.198-.1.398-.1.679 0 .054.045.101.1.101h3.136c.054 0 .1-.046.1-.101 0-.281-.033-.481-.1-.679" fill="#7b868c"/><path d="M69.249.924c-.231.28-.363.593-.363 1.138v14.976h-.083S60.606 2.425 60.21 1.748c-.28-.478-.594-.808-1.006-1.056-.413-.231-.841-.379-1.666-.379h-2.705c-.627 0-1.023.214-1.303.544-.231.28-.363.594-.363 1.138v21.227c0 .544.132.857.363 1.138.28.329.676.544 1.303.544h1.534c.626 0 1.023-.215 1.303-.544.231-.281.363-.594.363-1.138V7.884h.083s8.51 15.075 8.857 15.635c.478.792 1.286 1.385 2.441 1.385h2.623c.626 0 1.023-.215 1.303-.544.231-.281.363-.594.363-1.138V4.074h34.454c.347 0 .61-.099.809-.264.214-.198.313-.462.313-.858V1.501c0-.396-.099-.66-.313-.857-.198-.165-.462-.264-.809-.264H70.551c-.626 0-1.022.214-1.302.544M84.29 6.598c-5.723 0-8.939 4.47-8.939 9.187 0 5.031 3.447 9.451 8.972 9.451 2.755 0 5.459-1.039 7.01-2.87.676-.792 1.221-1.897 1.221-2.573 0-.231-.05-.429-.182-.577-.132-.165-.33-.264-.676-.264h-2.655c-.528 0-.891.198-1.155.594-.775 1.138-1.896 1.732-3.546 1.732-2.474 0-4.074-1.88-4.189-3.941H91.63c.511 0 .874-.116 1.122-.363.28-.263.413-.643.413-1.352 0-2.161-.677-4.404-2.095-6.119-1.452-1.735-3.663-2.905-6.78-2.905m17.698 0c-4.52 0-7.488 2.144-7.488 5.574 0 1.221.445 2.21 1.171 2.985.841.907 2.045 1.534 3.794 1.979l3.777.957c1.039.264 1.963.578 1.963 1.485 0 1.402-1.485 1.88-3.068 1.88-.775 0-1.583-.148-2.243-.478a2.79 2.79 0 0 1-1.138-1.006c-.247-.379-.33-.66-.709-.874-.231-.132-.511-.148-.89-.148H95.11c-.445 0-.66.132-.809.313-.148.181-.198.445-.198.709 0 .66.231 1.484.775 2.226 1.254 1.683 3.876 3.035 7.224 3.035 3.299 0 7.867-1.369 7.867-5.789 0-1.138-.33-2.111-.94-2.903-.775-1.006-1.88-1.698-3.761-2.177l-3.744-.957c-1.55-.396-2.276-.676-2.276-1.633 0-.924.825-1.666 2.738-1.666 1.122 0 2.144.247 2.804.94.545.577.446.874.874 1.105.264.132.561.132 1.023.132h1.863c.297 0 .512-.05.676-.231.132-.148.215-.379.215-.759 0-.857-.561-1.963-1.55-2.804-1.318-1.137-3.396-1.895-5.903-1.895m10.275.626h-.924c-.346 0-.61.099-.808.264-.215.198-.313.462-.313.857v1.138c0 .396.099.66.313.857.198.165.462.264.808.264h.924v8.23c0 2.111.578 3.431 1.65 4.486.989.973 2.276 1.583 4.519 1.583h1.402c.346 0 .61-.099.808-.264.215-.198.346-.462.346-.858v-1.435c0-.396-.132-.66-.346-.858-.198-.165-.461-.263-.808-.263h-.198c-.891 0-1.501-.231-1.913-.627-.495-.462-.743-1.171-.743-2.095v-7.9h3.002c.346 0 .61-.099.808-.264.215-.198.313-.461.313-.857V8.346c0-.396-.099-.66-.313-.857-.198-.165-.462-.264-.808-.264h-2.985V1.848c0-.429-.132-.742-.33-.99-.248-.297-.594-.478-1.105-.478h-1.864c-.511 0-.857.181-1.105.478-.198.248-.33.561-.33.99v5.376zm10.094 16.212c0 .429.131.743.33.99.247.297.594.479 1.104.479h1.963c.511 0 .858-.182 1.105-.479.198-.248.33-.561.33-.99V1.848c0-.429-.132-.743-.33-.99-.247-.297-.594-.478-1.105-.478h-1.963c-.511 0-.857.181-1.104.478-.198.248-.33.561-.33.99v21.588zm-42.173-9.614c.214-2.029 1.765-3.546 4.123-3.546 2.309 0 3.909 1.517 4.123 3.546h-8.246zm64.868-9.748c.347 0 .61-.099.808-.264.215-.198.313-.462.313-.858V1.418c0-.593-.115-.89-.313-1.104-.181-.199-.478-.314-.808-.314-.263 0-.528.033-.973.083l-13.162 1.303c-.379.033-.561.148-.693.297-.149.165-.215.379-.215.676v.857c0 .33.066.478.182.61.148.165.363.248.66.248h14.201zm-7.273 2.524c-5.724 0-8.939 4.47-8.939 9.187 0 5.031 3.447 9.451 8.972 9.451 2.754 0 5.459-1.039 7.009-2.87.676-.792 1.221-1.897 1.221-2.573 0-.231-.05-.429-.182-.577-.132-.165-.33-.264-.676-.264h-2.655c-.528 0-.89.198-1.154.594-.775 1.138-1.897 1.732-3.546 1.732-2.474 0-4.074-1.88-4.189-3.941h11.512c.511 0 .874-.116 1.122-.363.28-.263.413-.643.413-1.352 0-2.161-.676-4.404-2.095-6.119-1.454-1.735-3.697-2.905-6.813-2.905m-4.108 7.224c.215-2.029 1.765-3.546 4.124-3.546 2.309 0 3.909 1.517 4.123 3.546h-8.247z" fill="#002169"/><path d="M22.262 37.89a.327.327 0 0 1-.039-.051l-5.384-9.325h-1.75a.32.32 0 0 0-.278.16l-1.999 3.463.364.63 1.596 2.764a.272.272 0 0 1 0 .271l-.364.63-1.53 2.65 1.934 3.35a.323.323 0 0 0 .278.161h7.755a.32.32 0 0 0 .278-.161l2.557-4.429h-3.174a.318.318 0 0 1-.244-.113z" opacity=".5" fill="#7b868c"/><path d="M46.664 17.762l-3.88-6.72a.324.324 0 0 0-.278-.159h-7.757a.323.323 0 0 0-.278.159l-2.618 4.535h3.221c.117 0 .225.061.283.164l5.325 9.22h1.824a.322.322 0 0 0 .278-.16l3.88-6.719a.316.316 0 0 0 0-.32z" opacity=".6" fill="#008fbe"/><path d="M40.682 24.961h-5.933a.309.309 0 0 1-.249-.123c-.01-.012-.021-.023-.029-.037l-3.88-6.719a.329.329 0 0 1-.042-.156l-.001-.004c0-.055.014-.11.043-.16l1.262-2.185h-9.347a.325.325 0 0 0-.283.164l-6.286 10.887a.322.322 0 0 0 0 .326l.901 1.561h6.005a.32.32 0 0 1 .184.06.313.313 0 0 1 .095.1l2.515 4.355 1.364 2.362.001.002a.328.328 0 0 1-.001.319l-1.322 2.289h9.393a.328.328 0 0 0 .283-.164l6.288-10.887a.322.322 0 0 0 0-.326l-.961-1.664z" opacity=".5" fill="#7b868c"/><path d="M23.122 28.675l2.515 4.356-2.515-4.356z" opacity=".5" fill="#7b868c"/><path d="M23.122 28.675l2.515 4.356-2.515-4.356zm3.911 6.961a.329.329 0 0 1-.032.078l-1.322 2.289h-3.174 3.174l1.322-2.289a.279.279 0 0 0 .032-.078z" opacity=".5" fill="#7b868c"/><path d="M27.033 35.636a.329.329 0 0 1-.032.078l-1.322 2.289h-3.174 3.174l1.322-2.289a.279.279 0 0 0 .032-.078zm-.031-.243l.001.002zm0 0l.001.002z" opacity=".5" fill="#7b868c"/><path d="M35.073 15.577h-3.221l-1.262 2.185 1.262-2.185h3.221c.117 0 .225.061.283.164l5.325 9.22-5.325-9.22a.323.323 0 0 0-.283-.164z" opacity=".6" fill="#008fbe"/><path d="M35.073 15.577h-3.221l-1.262 2.185 1.262-2.185h3.221c.117 0 .225.061.283.164l5.325 9.22-5.325-9.22a.323.323 0 0 0-.283-.164z" opacity=".5" fill="#7b868c"/><path fill="#7b868c" d="M16.839 28.514v.001zm5.423 9.376a.327.327 0 0 1-.039-.051l-5.384-9.325 5.384 9.325a.327.327 0 0 0 .039.051zm4.771-2.254zm-.032-.243l-1.364-2.363 1.365 2.363zm-4.157-6.878h-6.005 6.005z"/><path d="M16.839 28.515l5.384 9.325a.327.327 0 0 0 .039.051c.061.07.149.113.244.113h3.174l1.322-2.289a.328.328 0 0 0 .001-.319l-.001-.002-1.364-2.363-2.515-4.356a.333.333 0 0 0-.278-.16h-6.006z" fill="#7b868c"/><path d="M30.591 18.082l3.88 6.719c.008.014.019.025.029.037-.01-.012-.021-.023-.029-.037l-3.88-6.719zm3.997 6.836a.317.317 0 0 0 .16.043h5.933-5.933a.317.317 0 0 1-.16-.043zm-4.04-6.992l-.001-.004.001.004z" fill="#008fbe"/><path d="M30.558 18.004a.329.329 0 0 0 .032.078l3.88 6.719c.008.014.019.025.029.037a.309.309 0 0 0 .249.123h5.933l-5.325-9.22a.324.324 0 0 0-.283-.164h-3.221l-1.262 2.185a.318.318 0 0 0-.032.242z" fill="#008fbe"/><path d="M10.923 35.692a.323.323 0 0 1 .009-.299l1.042-1.805.837-1.45-.392-.679a.271.271 0 0 0-.235-.135h-4.7a.271.271 0 0 0-.235.135l-2.351 4.073a.273.273 0 0 0 0 .271l2.351 4.071a.273.273 0 0 0 .235.135h4.701a.275.275 0 0 0 .235-.135l.457-.791-1.945-3.368-.009-.023zm3.884-.025a.259.259 0 0 0-.037-.135l-1.596-2.764 1.596 2.764a.262.262 0 0 1 .037.135z" opacity=".5" fill="#7b868c"/><path d="M14.807 35.667a.259.259 0 0 0-.037-.135l-1.596-2.764 1.596 2.764a.262.262 0 0 1 .037.135zm-1.931 3.415l-1.944-3.368c-.004-.007-.006-.015-.009-.023l.009.023 1.944 3.368 1.531-2.65-1.531 2.65z" opacity=".5" fill="#7b868c"/><path d="M12.876 39.082l-1.944-3.368c-.004-.007-.006-.015-.009-.023l.009.023 1.944 3.368 1.531-2.65-1.531 2.65zm-.065-6.944l-.837 1.449zm0 0l-.837 1.449z" opacity=".5" fill="#7b868c"/><path d="M14.407 36.433l.364-.63-.364.63zm-1.596-4.295l.364.63zm-1.879 3.255l1.042-1.806-1.042 1.806zm0 0a.326.326 0 0 0-.009.299c.004.007.005.015.009.023l1.944 3.368 1.531-2.65.364-.63a.275.275 0 0 0 .037-.136.259.259 0 0 0-.037-.135l-1.596-2.764-.364-.63-.837 1.45-1.042 1.805z" fill="#7b868c"/><path d="M5.866 30.002l1.767-3.059a.303.303 0 0 0 0-.305l-1.767-3.06a.307.307 0 0 0-.264-.152H2.071a.308.308 0 0 0-.265.152L.04 26.638a.307.307 0 0 0 0 .305l1.766 3.059a.305.305 0 0 0 .265.152h3.531c.109 0 .21-.058.264-.152z" opacity=".5" fill="#7b868c"/><path d="M155.95 39.816c0 .814-.292 1.511-.877 2.091a2.88 2.88 0 0 1-2.099.869c-.814 0-1.513-.292-2.098-.877s-.877-1.278-.877-2.083c0-.804.292-1.496.877-2.075a2.878 2.878 0 0 1 2.098-.869c.814 0 1.514.287 2.099.861a2.81 2.81 0 0 1 .877 2.083m-.579 0a2.26 2.26 0 0 0-.704-1.676 2.336 2.336 0 0 0-1.692-.689c-.658 0-1.221.232-1.691.697a2.264 2.264 0 0 0-.705 1.668c0 .647.235 1.206.705 1.676s1.033.704 1.691.704a2.32 2.32 0 0 0 1.692-.697 2.284 2.284 0 0 0 .704-1.683m-1.096 1.55h-.721a29.594 29.594 0 0 0-.109-.83c-.052-.324-.198-.485-.438-.485h-.548v1.315h-.657v-3.148h1.268c.73 0 1.096.272 1.096.814 0 .376-.183.621-.548.736a.625.625 0 0 1 .438.454c.01.042.036.261.078.658.021.188.068.35.141.486m-.768-2.322c0-.267-.203-.4-.611-.4h-.439v.83h.439c.408 0 .611-.143.611-.43" fill="#7b868c"/><path d="M155.95 39.816c0 .814-.292 1.511-.877 2.091a2.88 2.88 0 0 1-2.099.869c-.814 0-1.513-.292-2.098-.877s-.877-1.278-.877-2.083c0-.804.292-1.496.877-2.075a2.878 2.878 0 0 1 2.098-.869c.814 0 1.514.287 2.099.861a2.81 2.81 0 0 1 .877 2.083m-.579 0a2.26 2.26 0 0 0-.704-1.676 2.336 2.336 0 0 0-1.692-.689c-.658 0-1.221.232-1.691.697a2.264 2.264 0 0 0-.705 1.668c0 .647.235 1.206.705 1.676s1.033.704 1.691.704a2.32 2.32 0 0 0 1.692-.697 2.284 2.284 0 0 0 .704-1.683m-1.096 1.55h-.721a29.594 29.594 0 0 0-.109-.83c-.052-.324-.198-.485-.438-.485h-.548v1.315h-.657v-3.148h1.268c.73 0 1.096.272 1.096.814 0 .376-.183.621-.548.736a.625.625 0 0 1 .438.454c.01.042.036.261.078.658.021.188.068.35.141.486m-.768-2.322c0-.267-.203-.4-.611-.4h-.439v.83h.439c.408 0 .611-.143.611-.43" fill="#7b868c"/></svg>